<mxfile host="app.diagrams.net" modified="2023-04-29T12:15:27.882Z" agent="Mozilla/5.0 (X11; Linux x86_64; rv:109.0) Gecko/20100101 Firefox/112.0" etag="pGnmZw3YUxvlAAIPTehV" version="21.2.1" type="github">
  <diagram name="Page-1" id="IIMYXS_ZGtjkSvDO2QiA">
    <mxGraphModel dx="1434" dy="721" grid="1" gridSize="10" guides="1" tooltips="1" connect="1" arrows="1" fold="1" page="1" pageScale="1" pageWidth="850" pageHeight="1100" math="0" shadow="0">
      <root>
        <mxCell id="0" />
        <mxCell id="1" parent="0" />
        <mxCell id="nAG0kFnonR4oPhe6CNK5-5" style="edgeStyle=orthogonalEdgeStyle;rounded=0;orthogonalLoop=1;jettySize=auto;html=1;entryX=0;entryY=0.2;entryDx=0;entryDy=0;entryPerimeter=0;" edge="1" parent="1" source="nAG0kFnonR4oPhe6CNK5-1" target="nAG0kFnonR4oPhe6CNK5-2">
          <mxGeometry relative="1" as="geometry">
            <Array as="points">
              <mxPoint x="230" y="310" />
              <mxPoint x="230" y="38" />
            </Array>
          </mxGeometry>
        </mxCell>
        <mxCell id="nAG0kFnonR4oPhe6CNK5-8" value="Price(t)" style="edgeLabel;html=1;align=center;verticalAlign=middle;resizable=0;points=[];" vertex="1" connectable="0" parent="nAG0kFnonR4oPhe6CNK5-5">
          <mxGeometry x="0.7098" y="1" relative="1" as="geometry">
            <mxPoint x="-11" as="offset" />
          </mxGeometry>
        </mxCell>
        <mxCell id="nAG0kFnonR4oPhe6CNK5-13" style="edgeStyle=orthogonalEdgeStyle;rounded=0;orthogonalLoop=1;jettySize=auto;html=1;entryX=0;entryY=0.88;entryDx=0;entryDy=0;entryPerimeter=0;" edge="1" parent="1" source="nAG0kFnonR4oPhe6CNK5-1" target="nAG0kFnonR4oPhe6CNK5-3">
          <mxGeometry relative="1" as="geometry">
            <Array as="points">
              <mxPoint x="230" y="310" />
              <mxPoint x="230" y="703" />
            </Array>
          </mxGeometry>
        </mxCell>
        <mxCell id="nAG0kFnonR4oPhe6CNK5-14" value="&lt;div&gt;Price(t)&lt;/div&gt;" style="edgeLabel;html=1;align=center;verticalAlign=middle;resizable=0;points=[];" vertex="1" connectable="0" parent="nAG0kFnonR4oPhe6CNK5-13">
          <mxGeometry x="0.5705" y="2" relative="1" as="geometry">
            <mxPoint x="45" y="1" as="offset" />
          </mxGeometry>
        </mxCell>
        <mxCell id="nAG0kFnonR4oPhe6CNK5-1" value="Input" style="rounded=0;whiteSpace=wrap;html=1;" vertex="1" parent="1">
          <mxGeometry x="40" y="280" width="120" height="60" as="geometry" />
        </mxCell>
        <mxCell id="nAG0kFnonR4oPhe6CNK5-11" style="edgeStyle=orthogonalEdgeStyle;rounded=0;orthogonalLoop=1;jettySize=auto;html=1;entryX=-0.033;entryY=0.186;entryDx=0;entryDy=0;entryPerimeter=0;" edge="1" parent="1" source="nAG0kFnonR4oPhe6CNK5-2" target="nAG0kFnonR4oPhe6CNK5-4">
          <mxGeometry relative="1" as="geometry">
            <Array as="points">
              <mxPoint x="580" y="100" />
              <mxPoint x="580" y="160" />
              <mxPoint x="420" y="160" />
              <mxPoint x="420" y="216" />
            </Array>
          </mxGeometry>
        </mxCell>
        <mxCell id="nAG0kFnonR4oPhe6CNK5-12" value="&lt;div&gt;Price(t) and balance(t)&lt;/div&gt;" style="edgeLabel;html=1;align=center;verticalAlign=middle;resizable=0;points=[];" vertex="1" connectable="0" parent="nAG0kFnonR4oPhe6CNK5-11">
          <mxGeometry x="0.0338" relative="1" as="geometry">
            <mxPoint x="1" as="offset" />
          </mxGeometry>
        </mxCell>
        <mxCell id="nAG0kFnonR4oPhe6CNK5-2" value="&lt;div&gt;Accountant&lt;/div&gt;" style="rounded=0;whiteSpace=wrap;html=1;points=[[0,0,0,0,0],[0,0.2,0,0,0],[0,0.4,0,0,0],[0,0.6,0,0,0],[0,0.81,0,0,0],[0,1,0,0,0],[0.25,0,0,0,0],[0.25,1,0,0,0],[0.5,0,0,0,0],[0.5,1,0,0,0],[0.75,0,0,0,0],[0.75,1,0,0,0],[1,0,0,0,0],[1,0.25,0,0,0],[1,0.5,0,0,0],[1,0.75,0,0,0],[1,1,0,0,0]];" vertex="1" parent="1">
          <mxGeometry x="440" y="16" width="120" height="110" as="geometry" />
        </mxCell>
        <mxCell id="nAG0kFnonR4oPhe6CNK5-9" style="edgeStyle=orthogonalEdgeStyle;rounded=0;orthogonalLoop=1;jettySize=auto;html=1;entryX=0;entryY=0.4;entryDx=0;entryDy=0;exitX=0;exitY=0.73;exitDx=0;exitDy=0;exitPerimeter=0;entryPerimeter=0;" edge="1" parent="1" source="nAG0kFnonR4oPhe6CNK5-3" target="nAG0kFnonR4oPhe6CNK5-2">
          <mxGeometry relative="1" as="geometry">
            <Array as="points">
              <mxPoint x="260" y="656" />
              <mxPoint x="260" y="60" />
            </Array>
          </mxGeometry>
        </mxCell>
        <mxCell id="nAG0kFnonR4oPhe6CNK5-10" value="&lt;div&gt;update&lt;/div&gt;&lt;div&gt;account&lt;/div&gt;&lt;div&gt;assets&lt;br&gt;&lt;/div&gt;" style="edgeLabel;html=1;align=center;verticalAlign=middle;resizable=0;points=[];" vertex="1" connectable="0" parent="nAG0kFnonR4oPhe6CNK5-9">
          <mxGeometry x="-0.1153" y="2" relative="1" as="geometry">
            <mxPoint y="-261" as="offset" />
          </mxGeometry>
        </mxCell>
        <mxCell id="nAG0kFnonR4oPhe6CNK5-32" style="edgeStyle=orthogonalEdgeStyle;rounded=0;orthogonalLoop=1;jettySize=auto;html=1;exitX=0;exitY=0.46;exitDx=0;exitDy=0;exitPerimeter=0;entryX=0;entryY=0.81;entryDx=0;entryDy=0;entryPerimeter=0;" edge="1" parent="1" source="nAG0kFnonR4oPhe6CNK5-3" target="nAG0kFnonR4oPhe6CNK5-2">
          <mxGeometry relative="1" as="geometry">
            <Array as="points">
              <mxPoint x="330" y="573" />
              <mxPoint x="330" y="105" />
            </Array>
          </mxGeometry>
        </mxCell>
        <mxCell id="nAG0kFnonR4oPhe6CNK5-33" value="&lt;div&gt;Lock &lt;br&gt;&lt;/div&gt;&lt;div&gt;amount&lt;/div&gt;" style="edgeLabel;html=1;align=center;verticalAlign=middle;resizable=0;points=[];" vertex="1" connectable="0" parent="nAG0kFnonR4oPhe6CNK5-32">
          <mxGeometry x="0.1909" y="-2" relative="1" as="geometry">
            <mxPoint x="1" y="38" as="offset" />
          </mxGeometry>
        </mxCell>
        <mxCell id="nAG0kFnonR4oPhe6CNK5-34" style="edgeStyle=orthogonalEdgeStyle;rounded=0;orthogonalLoop=1;jettySize=auto;html=1;exitX=0;exitY=0.59;exitDx=0;exitDy=0;exitPerimeter=0;entryX=0;entryY=0.6;entryDx=0;entryDy=0;entryPerimeter=0;" edge="1" parent="1" source="nAG0kFnonR4oPhe6CNK5-3" target="nAG0kFnonR4oPhe6CNK5-2">
          <mxGeometry relative="1" as="geometry">
            <Array as="points">
              <mxPoint x="290" y="613" />
              <mxPoint x="290" y="82" />
            </Array>
          </mxGeometry>
        </mxCell>
        <mxCell id="nAG0kFnonR4oPhe6CNK5-35" value="&lt;div&gt;Unlock&lt;/div&gt;&lt;div&gt;amount&lt;/div&gt;" style="edgeLabel;html=1;align=center;verticalAlign=middle;resizable=0;points=[];" vertex="1" connectable="0" parent="nAG0kFnonR4oPhe6CNK5-34">
          <mxGeometry x="0.2538" y="-2" relative="1" as="geometry">
            <mxPoint as="offset" />
          </mxGeometry>
        </mxCell>
        <mxCell id="nAG0kFnonR4oPhe6CNK5-3" value="&lt;div&gt;Broker&lt;/div&gt;" style="rounded=0;whiteSpace=wrap;html=1;points=[[0,0,0,0,0],[0,0.1,0,0,0],[0,0.21,0,0,0],[0,0.32,0,0,0],[0,0.46,0,0,0],[0,0.59,0,0,0],[0,0.73,0,0,0],[0,0.88,0,0,0],[0,1,0,0,0],[0.25,0,0,0,0],[0.25,1,0,0,0],[0.5,0,0,0,0],[0.5,1,0,0,0],[0.75,0,0,0,0],[0.75,1,0,0,0],[1,0,0,0,0],[1,0.25,0,0,0],[1,0.5,0,0,0],[1,0.75,0,0,0],[1,1,0,0,0]];" vertex="1" parent="1">
          <mxGeometry x="440" y="430" width="120" height="310" as="geometry" />
        </mxCell>
        <mxCell id="nAG0kFnonR4oPhe6CNK5-15" style="edgeStyle=orthogonalEdgeStyle;rounded=0;orthogonalLoop=1;jettySize=auto;html=1;exitX=1;exitY=0.75;exitDx=0;exitDy=0;entryX=0;entryY=0.32;entryDx=0;entryDy=0;entryPerimeter=0;" edge="1" parent="1" source="nAG0kFnonR4oPhe6CNK5-4" target="nAG0kFnonR4oPhe6CNK5-3">
          <mxGeometry relative="1" as="geometry">
            <Array as="points">
              <mxPoint x="580" y="295" />
              <mxPoint x="580" y="350" />
              <mxPoint x="360" y="350" />
              <mxPoint x="360" y="529" />
            </Array>
          </mxGeometry>
        </mxCell>
        <mxCell id="nAG0kFnonR4oPhe6CNK5-16" value="MARKET ORDER" style="edgeLabel;html=1;align=center;verticalAlign=middle;resizable=0;points=[];" vertex="1" connectable="0" parent="nAG0kFnonR4oPhe6CNK5-15">
          <mxGeometry x="-0.2853" y="1" relative="1" as="geometry">
            <mxPoint x="43" y="-1" as="offset" />
          </mxGeometry>
        </mxCell>
        <mxCell id="nAG0kFnonR4oPhe6CNK5-17" style="edgeStyle=orthogonalEdgeStyle;rounded=0;orthogonalLoop=1;jettySize=auto;html=1;entryX=0;entryY=0.21;entryDx=0;entryDy=0;entryPerimeter=0;" edge="1" parent="1" source="nAG0kFnonR4oPhe6CNK5-4" target="nAG0kFnonR4oPhe6CNK5-3">
          <mxGeometry relative="1" as="geometry">
            <mxPoint x="440" y="539" as="targetPoint" />
            <Array as="points">
              <mxPoint x="600" y="260" />
              <mxPoint x="600" y="380" />
              <mxPoint x="390" y="380" />
              <mxPoint x="390" y="495" />
            </Array>
          </mxGeometry>
        </mxCell>
        <mxCell id="nAG0kFnonR4oPhe6CNK5-18" value="LIMIT ORDER" style="edgeLabel;html=1;align=center;verticalAlign=middle;resizable=0;points=[];" vertex="1" connectable="0" parent="nAG0kFnonR4oPhe6CNK5-17">
          <mxGeometry x="-0.1515" y="3" relative="1" as="geometry">
            <mxPoint x="-33" y="-3" as="offset" />
          </mxGeometry>
        </mxCell>
        <mxCell id="nAG0kFnonR4oPhe6CNK5-20" style="edgeStyle=orthogonalEdgeStyle;rounded=0;orthogonalLoop=1;jettySize=auto;html=1;exitX=1;exitY=0.25;exitDx=0;exitDy=0;entryX=0;entryY=0.1;entryDx=0;entryDy=0;entryPerimeter=0;" edge="1" parent="1" source="nAG0kFnonR4oPhe6CNK5-4" target="nAG0kFnonR4oPhe6CNK5-3">
          <mxGeometry relative="1" as="geometry">
            <Array as="points">
              <mxPoint x="620" y="225" />
              <mxPoint x="620" y="410" />
              <mxPoint x="420" y="410" />
              <mxPoint x="420" y="461" />
            </Array>
          </mxGeometry>
        </mxCell>
        <mxCell id="nAG0kFnonR4oPhe6CNK5-21" value="&lt;div&gt;STOP ORDER&lt;/div&gt;" style="edgeLabel;html=1;align=center;verticalAlign=middle;resizable=0;points=[];" vertex="1" connectable="0" parent="nAG0kFnonR4oPhe6CNK5-20">
          <mxGeometry x="0.2657" y="-3" relative="1" as="geometry">
            <mxPoint x="-38" as="offset" />
          </mxGeometry>
        </mxCell>
        <mxCell id="nAG0kFnonR4oPhe6CNK5-4" value="Trading Bot" style="rounded=0;whiteSpace=wrap;html=1;" vertex="1" parent="1">
          <mxGeometry x="440" y="190" width="120" height="140" as="geometry" />
        </mxCell>
        <mxCell id="nAG0kFnonR4oPhe6CNK5-25" value="" style="group" vertex="1" connectable="0" parent="1">
          <mxGeometry x="640" y="200" width="183" height="120" as="geometry" />
        </mxCell>
        <mxCell id="nAG0kFnonR4oPhe6CNK5-22" value="" style="shape=curlyBracket;whiteSpace=wrap;html=1;rounded=1;flipH=1;labelPosition=right;verticalLabelPosition=middle;align=left;verticalAlign=middle;" vertex="1" parent="nAG0kFnonR4oPhe6CNK5-25">
          <mxGeometry y="20" width="20" height="100" as="geometry" />
        </mxCell>
        <mxCell id="nAG0kFnonR4oPhe6CNK5-23" value="&lt;div align=&quot;left&quot;&gt;Each one of the possible&lt;/div&gt;&lt;div align=&quot;left&quot;&gt;outputs of the trading bot&lt;/div&gt;&lt;div align=&quot;left&quot;&gt;represents a type of market order&lt;br&gt;&lt;/div&gt;" style="text;html=1;strokeColor=none;fillColor=none;align=left;verticalAlign=middle;whiteSpace=wrap;rounded=0;" vertex="1" parent="nAG0kFnonR4oPhe6CNK5-25">
          <mxGeometry x="23" y="50" width="160" height="40" as="geometry" />
        </mxCell>
        <mxCell id="nAG0kFnonR4oPhe6CNK5-28" value="" style="group" vertex="1" connectable="0" parent="1">
          <mxGeometry x="640" y="20" width="183" height="100" as="geometry" />
        </mxCell>
        <mxCell id="nAG0kFnonR4oPhe6CNK5-24" value="" style="shape=curlyBracket;whiteSpace=wrap;html=1;rounded=1;flipH=1;labelPosition=right;verticalLabelPosition=middle;align=left;verticalAlign=middle;size=0.5;" vertex="1" parent="nAG0kFnonR4oPhe6CNK5-28">
          <mxGeometry width="20" height="100" as="geometry" />
        </mxCell>
        <mxCell id="nAG0kFnonR4oPhe6CNK5-27" value="&lt;div align=&quot;left&quot;&gt;The accountant receives the initial balance avaiable for trading&lt;/div&gt;" style="text;html=1;strokeColor=none;fillColor=none;align=left;verticalAlign=middle;whiteSpace=wrap;rounded=0;" vertex="1" parent="nAG0kFnonR4oPhe6CNK5-28">
          <mxGeometry x="20" y="40" width="160" height="30" as="geometry" />
        </mxCell>
        <mxCell id="nAG0kFnonR4oPhe6CNK5-29" value="Sanitized market data" style="text;html=1;strokeColor=none;fillColor=none;align=center;verticalAlign=middle;whiteSpace=wrap;rounded=0;" vertex="1" parent="1">
          <mxGeometry x="55" y="350" width="90" height="30" as="geometry" />
        </mxCell>
        <mxCell id="nAG0kFnonR4oPhe6CNK5-31" style="edgeStyle=orthogonalEdgeStyle;rounded=0;orthogonalLoop=1;jettySize=auto;html=1;exitX=0;exitY=0.85;exitDx=0;exitDy=0;exitPerimeter=0;entryX=0;entryY=0.85;entryDx=0;entryDy=0;entryPerimeter=0;" edge="1" parent="1" source="nAG0kFnonR4oPhe6CNK5-3" target="nAG0kFnonR4oPhe6CNK5-3">
          <mxGeometry relative="1" as="geometry" />
        </mxCell>
      </root>
    </mxGraphModel>
  </diagram>
</mxfile>
